<svg width="200" height="80" viewBox="0 0 200 80" fill="none" xmlns="http://www.w3.org/2000/svg">
<g clip-path="url(#clip0_6342_6276)">
<mask id="mask0_6342_6276" style="mask-type:luminance" maskUnits="userSpaceOnUse" x="32" y="29" width="136" height="21">
<path d="M32.4355 29.998H167.019V49.998H32.4355V29.998Z" fill="white"/>
</mask>
<g mask="url(#mask0_6342_6276)">
<path d="M55.0459 45.7669L51.3542 49.7252C51.2744 49.8112 51.1777 49.8798 51.0701 49.9268C50.9626 49.9737 50.8466 49.998 50.7292 49.9981H33.2292C33.1458 49.9981 33.0641 49.9737 32.9943 49.928C32.9245 49.8822 32.8695 49.8171 32.8361 49.7406C32.8027 49.6641 32.7924 49.5796 32.8063 49.4973C32.8203 49.415 32.8579 49.3385 32.9146 49.2773L36.6021 45.319C36.682 45.233 36.7787 45.1644 36.8862 45.1174C36.9938 45.0705 37.1098 45.0462 37.2271 45.0461H54.7271C54.8114 45.0443 54.8942 45.0675 54.9653 45.1128C55.0364 45.158 55.0925 45.2233 55.1266 45.3003C55.1606 45.3774 55.1711 45.4628 55.1568 45.5458C55.1424 45.6288 55.1038 45.7057 55.0459 45.7669ZM51.3542 37.794C51.2741 37.7084 51.1773 37.64 51.0698 37.5931C50.9624 37.5462 50.8465 37.5217 50.7292 37.5211H33.2292C33.1458 37.5211 33.0641 37.5455 32.9943 37.5912C32.9245 37.637 32.8695 37.7021 32.8361 37.7786C32.8027 37.8551 32.7924 37.9396 32.8063 38.0219C32.8203 38.1042 32.8579 38.1807 32.9146 38.2419L36.6021 42.2023C36.6823 42.2879 36.779 42.3563 36.8865 42.4032C36.994 42.4501 37.1099 42.4746 37.2271 42.4752H54.7271C54.8104 42.4748 54.8918 42.4501 54.9613 42.4042C55.0308 42.3583 55.0854 42.2932 55.1186 42.2168C55.1517 42.1403 55.1619 42.0559 55.1479 41.9738C55.1338 41.8917 55.0962 41.8155 55.0396 41.7544L51.3542 37.794ZM33.2292 34.9502H50.7292C50.8466 34.9501 50.9626 34.9259 51.0702 34.8789C51.1777 34.8319 51.2744 34.7633 51.3542 34.6773L55.0459 30.719C55.0891 30.6732 55.1216 30.6185 55.1413 30.5587C55.161 30.499 55.1672 30.4356 55.1596 30.3731C55.1519 30.3106 55.1305 30.2506 55.0969 30.1973C55.0633 30.144 55.0183 30.0987 54.9653 30.0648C54.8942 30.0196 54.8113 29.9964 54.7271 29.9981H37.2271C37.1098 29.9983 36.9937 30.0226 36.8862 30.0695C36.7787 30.1165 36.682 30.1851 36.6021 30.2711L32.9146 34.2294C32.8579 34.2906 32.8203 34.3671 32.8063 34.4494C32.7924 34.5316 32.8027 34.6162 32.8361 34.6927C32.8695 34.7692 32.9245 34.8343 32.9943 34.8801C33.0641 34.9258 33.1458 34.9502 33.2292 34.9502Z" fill="url(#paint0_linear_6342_6276)"/>
<path d="M76.3813 38.4562H67.0188V35.3728H78.8146V32.2895H66.9875C66.3789 32.2862 65.783 32.4634 65.2751 32.7988C64.7672 33.1342 64.3702 33.6126 64.1342 34.1737C63.9776 34.5461 63.8959 34.9457 63.8938 35.3497V38.4747C63.8954 38.8792 63.9768 39.2793 64.1332 39.6523C64.2896 40.0253 64.518 40.3637 64.8054 40.6484C65.0927 40.933 65.4333 41.1582 65.8078 41.3111C66.1822 41.4639 66.5831 41.5415 66.9875 41.5393H76.3625V44.6226H64.1167V47.706H76.3813C76.7854 47.7082 77.186 47.6308 77.5602 47.4782C77.9343 47.3256 78.2748 47.1008 78.5621 46.8166C78.8494 46.5324 79.0779 46.1944 79.2345 45.8219C79.3912 45.4494 79.4729 45.0496 79.475 44.6455V41.5205C79.4734 41.1161 79.3921 40.716 79.2356 40.343C79.0792 39.97 78.8508 39.6315 78.5635 39.3469C78.2761 39.0623 77.9355 38.8371 77.5611 38.6842C77.1866 38.5313 76.7857 38.4538 76.3813 38.456V38.4562ZM94.5188 32.2895H85.1209C84.7161 32.2863 84.3147 32.363 83.9396 32.5152C83.5645 32.6673 83.2232 32.892 82.935 33.1762C82.6469 33.4605 82.4176 33.7988 82.2604 34.1718C82.1032 34.5448 82.0211 34.9452 82.0188 35.3499V44.6458C82.0209 45.0506 82.1028 45.451 82.26 45.8241C82.4171 46.1972 82.6463 46.5356 82.9345 46.8199C83.2227 47.1042 83.5642 47.3289 83.9394 47.481C84.3146 47.633 84.7161 47.7096 85.1209 47.7062H94.5188C95.1274 47.7095 95.7233 47.5323 96.2312 47.197C96.7391 46.8616 97.1362 46.3832 97.3721 45.8222C97.5288 45.4497 97.6105 45.0499 97.6125 44.6458V35.3499C97.6104 34.9458 97.5287 34.5461 97.372 34.1736C97.2154 33.8011 96.9868 33.4632 96.6994 33.1791C96.4122 32.8949 96.0717 32.67 95.6976 32.5174C95.3234 32.3648 94.9229 32.2873 94.5188 32.2895ZM94.4959 44.6228H85.1438V35.3728H94.4917L94.4959 44.6228ZM127.435 32.2895H118.269C117.66 32.2862 117.064 32.4634 116.556 32.7988C116.048 33.1342 115.651 33.6126 115.415 34.1737C115.259 34.5461 115.177 34.9458 115.175 35.3499V47.7062H118.3V42.6416H127.425V47.7062H130.55V35.3499C130.547 34.7386 130.362 34.1422 130.018 33.6366C129.674 33.131 129.188 32.7392 128.621 32.5112C128.244 32.3597 127.841 32.2843 127.435 32.2893V32.2895ZM127.413 39.5583H118.288V35.3728H127.413V39.5583ZM163.925 32.2895H154.758C154.15 32.2862 153.554 32.4634 153.046 32.7988C152.538 33.1342 152.141 33.6126 151.905 34.1737C151.748 34.5461 151.667 34.9458 151.665 35.3499V47.7062H154.79V42.6416H163.894V47.7062H167.019V35.3499C167.017 34.9458 166.935 34.5461 166.778 34.1736C166.622 33.8011 166.393 33.4632 166.106 33.1791C165.525 32.6052 164.741 32.2852 163.925 32.2895ZM163.894 39.5583H154.769V35.3728H163.894V39.5583ZM145.769 44.6228H144.519L140.05 33.5812C139.897 33.2002 139.633 32.8737 139.293 32.6435C138.953 32.4134 138.552 32.2901 138.142 32.2895H135.369C134.963 32.2873 134.565 32.4055 134.227 32.6294C133.888 32.8532 133.624 33.1725 133.466 33.5468C133.362 33.7952 133.308 34.0617 133.306 34.3312V47.7062H136.431V35.3728H137.681L142.148 46.4145C142.304 46.7948 142.569 47.12 142.91 47.3487C143.252 47.5773 143.654 47.6988 144.065 47.6978H146.838C147.107 47.6993 147.374 47.6476 147.624 47.5457C147.873 47.4438 148.1 47.2937 148.292 47.1041C148.678 46.7211 148.897 46.2004 148.9 45.6562V32.2895H145.769V44.6228ZM103.498 32.2895H100.373V44.6458C100.376 45.2557 100.56 45.851 100.903 46.3558C101.245 46.8607 101.73 47.2524 102.295 47.4812C102.67 47.6333 103.072 47.7097 103.477 47.7062H112.852V44.6228H103.498V32.2895Z" fill="white"/>
</g>
</g>
<defs>
<linearGradient id="paint0_linear_6342_6276" x1="34.6876" y1="50.4752" x2="53.0376" y2="29.7877" gradientUnits="userSpaceOnUse">
<stop offset="0.08" stop-color="#9945FF"/>
<stop offset="0.3" stop-color="#8752F3"/>
<stop offset="0.5" stop-color="#5497D5"/>
<stop offset="0.6" stop-color="#43B4CA"/>
<stop offset="0.72" stop-color="#28E0B9"/>
<stop offset="0.97" stop-color="#19FB9B"/>
</linearGradient>
<clipPath id="clip0_6342_6276">
<rect width="135.455" height="20" fill="white" transform="translate(32 30)"/>
</clipPath>
</defs>
</svg>
